
<svg xmlns="http://www.w3.org/2000/svg" viewBox="0 0 800 600" fill="none">
  <g opacity="0.8">
    <circle cx="400" cy="300" r="250" fill="#4F7942" opacity="0.05"/>
    <circle cx="400" cy="300" r="200" fill="#4F7942" opacity="0.08"/>
    <circle cx="400" cy="300" r="150" fill="#4F7942" opacity="0.1"/>
  </g>
  
  <!-- Hand outline -->
  <path d="M450 200C450 200 470 220 470 260C470 300 450 320 450 320" stroke="#4F7942" stroke-width="8" stroke-linecap="round"/>
  <path d="M400 200C400 200 420 220 420 260C420 300 400 320 400 320" stroke="#4F7942" stroke-width="8" stroke-linecap="round"/>
  <path d="M350 200C350 200 370 220 370 260C370 300 350 320 350 320" stroke="#4F7942" stroke-width="8" stroke-linecap="round"/>
  <path d="M300 220C300 220 320 240 320 270C320 300 300 330 300 330" stroke="#4F7942" stroke-width="8" stroke-linecap="round"/>
  <path d="M320 350C320 350 350 370 400 370C450 370 480 350 480 350L490 430C490 430 450 460 400 460C350 460 310 430 310 430L320 350Z" stroke="#4F7942" stroke-width="8" fill="#4F7942" fill-opacity="0.1"/>
  
  <!-- Text conversion visual -->
  <rect x="520" y="250" width="120" height="20" rx="10" fill="#33C3F0" opacity="0.7"/>
  <rect x="550" y="280" width="90" height="20" rx="10" fill="#33C3F0" opacity="0.7"/>
  <rect x="580" y="310" width="60" height="20" rx="10" fill="#33C3F0" opacity="0.7"/>
  
  <!-- Connection lines -->
  <path d="M480 300L520 250" stroke="#33C3F0" stroke-width="3" stroke-dasharray="6 6"/>
  <path d="M480 320L550 280" stroke="#33C3F0" stroke-width="3" stroke-dasharray="6 6"/>
  <path d="M480 340L580 310" stroke="#33C3F0" stroke-width="3" stroke-dasharray="6 6"/>
</svg>
